<?xml version="1.0" standalone="no"?>
<svg xmlns="http://www.w3.org/2000/svg" xmlns:xlink="http://www.w3.org/1999/xlink" style="isolation:isolate"
     viewBox="0 0 191.3 236.8" width="191.3" height="236.8">
    <defs>
        <clipPath id="_clipPath_9ymWYjYKnFHFHd1LLIHvIcQUlCHjGEtS">
            <rect width="191.3" height="236.8"/>
        </clipPath>
    </defs>
    <g clip-path="url(#_clipPath_9ymWYjYKnFHFHd1LLIHvIcQUlCHjGEtS)">
        <path
            d=" M 28 100.3 C 28 100.3 60.4 107.9 80.8 79.5 C 101.2 51.1 107.2 45.8 117.5 44.5 C 110.7 37.7 35.6 44.5 35.6 44.5 L 28 100.3 Z "
            fill="#fff"
            fill-opacity="0.5"/>
        <path
            d=" M 34.3 178.2 C 34.3 178.2 54.4 215.2 96.4 215.2 C 138.4 215.2 159.5 185.5 159.5 88.4 C 163.1 99.3 163.1 99.3 163.1 99.3 L 163.4 182.5 L 139.3 214.2 L 105 229.8 C 105 229.8 64.4 222.9 63.4 223.2 C 62.4 223.5 41.3 202.4 40.6 201.4 C 39.9 200.4 34.3 178.2 34.3 178.2 Z "
            fill="#fff"
            fill-opacity="0.5"/>
        <path
            d=" M 87.8 106.6 L 69.6 106.6 C 67.6 106.6 66 105 66 103 L 66 103 C 66 101 67.6 99.4 69.6 99.4 L 87.8 99.4 C 89.8 99.4 91.4 101 91.4 103 L 91.4 103 C 91.5 104.9 89.8 106.6 87.8 106.6 Z "
            fill="#fff"/>
        <path
            d=" M 123.5 106.6 L 105.3 106.6 C 103.3 106.6 101.7 105 101.7 103 L 101.7 103 C 101.7 101 103.3 99.4 105.3 99.4 L 123.5 99.4 C 125.5 99.4 127.1 101 127.1 103 L 127.1 103 C 127.1 104.9 125.5 106.6 123.5 106.6 Z "
            fill="#fff"/>
        <circle vector-effect="non-scaling-stroke" cx="81.59999999999998" cy="118.80000000000005" r="7.900000000000006"
                fill="#fff"/>
        <circle vector-effect="non-scaling-stroke" cx="111.89999999999998" cy="118.80000000000005" r="7.900000000000006"
                fill="#fff"/>
        <path
            d=" M 119.5 156.5 C 119.5 156.5 118.8 143.9 106.9 143.9 C 106.9 134.4 100.5 132.9 97 132.9 L 97 132.9 C 96.9 132.9 96.9 132.9 96.8 132.9 C 96.7 132.9 96.7 132.9 96.6 132.9 L 96.6 132.9 C 93.1 133 86.7 134.4 86.7 143.9 C 74.8 143.9 74.1 156.5 74.1 156.5 C 62.5 156.5 61.9 166.4 61.9 166.4 C 61.9 166.4 63.6 179.9 82.4 173.3 C 91.1 171.4 94.8 171.9 96.8 168.6 C 98.8 171.9 102.5 171.4 111.2 173.3 C 130 179.9 131.7 166.4 131.7 166.4 C 131.7 166.4 131.1 156.5 119.5 156.5 Z  M 106.7 159.1 C 105.3 159.1 104.1 158.5 103.2 157.6 C 102 160.2 99.5 162 96.5 162 C 93.5 162 91 160.3 89.8 157.8 C 88.9 158.7 87.7 159.2 86.4 159.2 C 83.8 159.2 81.6 157.1 81.6 154.4 C 81.6 151.8 83.7 149.6 86.4 149.6 C 87.8 149.6 89 150.2 89.9 151.2 C 90.7 149.6 92.1 148.4 93.8 147.7 L 93.8 142.5 C 93.8 141 95.1 139.7 96.6 139.7 C 98.1 139.7 99.4 141 99.4 142.5 L 99.4 147.8 C 101 148.5 102.3 149.7 103 151.3 C 103.9 150.3 105.2 149.6 106.6 149.6 C 109.2 149.6 111.4 151.7 111.4 154.4 C 111.4 156.9 109.3 159.1 106.7 159.1 Z "
            fill="#fff"/>
        <path
            d=" M 182.6 102.6 C 173 93 177.3 81.1 177.3 81.1 C 180.9 45.1 158.5 38.8 155.2 38.5 C 151.9 38.2 142.6 39.2 133.7 20.3 C 123.5 -0.5 95.7 -1.5 86.5 5.8 C 77.3 13.1 74.6 14.4 65.7 12.7 C 49.5 9.4 40.6 16.7 40.6 16.7 C 11.2 38.9 32.7 46.5 12.9 59 C -6.6 75.2 4.3 101.6 4.3 101.6 C 4.3 101.6 8.3 111.5 4.3 120.1 C -5.6 149.8 20.8 163.7 20.8 163.7 C 21.1 199.7 54.5 235.4 96.1 234.7 C 137.7 234 169.4 207.9 172.1 154.8 C 196.2 137.6 192.2 112.2 182.6 102.6 Z  M 25.1 148.9 C 16.5 147.9 17.5 142.3 17.5 142.3 L 17.2 115.2 C 17.2 106 25.1 106.6 25.1 106.6 C 25.1 106.6 25.1 122.4 25.1 148.9 Z  M 160.2 164.4 C 160.2 164.4 156.2 223.5 95.5 223.5 C 34.8 223.5 31.4 158.4 31.4 158.4 C 31.4 158.4 32.4 94.3 32.4 95.3 C 32.4 95.3 62.5 94.3 80.6 66.9 C 101.4 45.1 117.6 44.4 117.6 44.4 C 117.6 44.4 160.2 59.6 160.2 99.9 C 160.2 140.2 160.2 164.4 160.2 164.4 Z  M 167.1 148.9 C 167.1 122.5 167.1 106.6 167.1 106.6 C 167.1 106.6 175 105.9 175 115.2 L 174.7 142.3 C 174.7 142.2 175.7 147.9 167.1 148.9 Z "
            fill="#fff"/>
        <path
            d=" M 83.5 204.7 C 85.6 198.7 91.2 194.4 97.9 194.4 C 104.6 194.4 110.2 198.7 112.3 204.7 L 119.5 202.6 C 116.5 193.5 107.9 186.9 97.9 186.9 C 87.8 186.9 79.2 193.5 76.3 202.6 L 83.5 204.7 Z "
            fill="#fff"
            fill-opacity="0.5"/>
    </g>
</svg>
